<?xml version="1.0" encoding="UTF-8"?>
<svg width="800" height="600" xmlns="http://www.w3.org/2000/svg">
  <!-- Background -->
  <rect width="800" height="600" fill="#f8f9fa"/>
  
  <!-- Title -->
  <text x="400" y="30" text-anchor="middle" font-family="Arial, sans-serif" font-size="24" font-weight="bold" fill="#2c3e50">
    HerHaven Architecture Overview
  </text>
  
  <!-- Frontend Layer -->
  <rect x="50" y="80" width="200" height="400" fill="#e3f2fd" stroke="#1976d2" stroke-width="2" rx="10"/>
  <text x="150" y="105" text-anchor="middle" font-family="Arial, sans-serif" font-size="16" font-weight="bold" fill="#1976d2">
    Frontend Layer
  </text>
  
  <!-- Frontend Components -->
  <rect x="70" y="120" width="160" height="30" fill="#bbdefb" stroke="#1976d2" rx="5"/>
  <text x="150" y="140" text-anchor="middle" font-family="Arial, sans-serif" font-size="12" fill="#1976d2">HTML Pages</text>
  
  <rect x="70" y="160" width="160" height="30" fill="#bbdefb" stroke="#1976d2" rx="5"/>
  <text x="150" y="180" text-anchor="middle" font-family="Arial, sans-serif" font-size="12" fill="#1976d2">CSS Styling</text>
  
  <rect x="70" y="200" width="160" height="30" fill="#bbdefb" stroke="#1976d2" rx="5"/>
  <text x="150" y="220" text-anchor="middle" font-family="Arial, sans-serif" font-size="12" fill="#1976d2">JavaScript Modules</text>
  
  <rect x="70" y="240" width="160" height="30" fill="#bbdefb" stroke="#1976d2" rx="5"/>
  <text x="150" y="260" text-anchor="middle" font-family="Arial, sans-serif" font-size="12" fill="#1976d2">Router & Auth</text>
  
  <rect x="70" y="280" width="160" height="30" fill="#bbdefb" stroke="#1976d2" rx="5"/>
  <text x="150" y="300" text-anchor="middle" font-family="Arial, sans-serif" font-size="12" fill="#1976d2">Mood Tracker</text>
  
  <rect x="70" y="320" width="160" height="30" fill="#bbdefb" stroke="#1976d2" rx="5"/>
  <text x="150" y="340" text-anchor="middle" font-family="Arial, sans-serif" font-size="12" fill="#1976d2">Period Tracker</text>
  
  <rect x="70" y="360" width="160" height="30" fill="#bbdefb" stroke="#1976d2" rx="5"/>
  <text x="150" y="380" text-anchor="middle" font-family="Arial, sans-serif" font-size="12" fill="#1976d2">Dashboard</text>
  
  <rect x="70" y="400" width="160" height="30" fill="#bbdefb" stroke="#1976d2" rx="5"/>
  <text x="150" y="420" text-anchor="middle" font-family="Arial, sans-serif" font-size="12" fill="#1976d2">API Client</text>
  
  <!-- Backend Layer -->
  <rect x="300" y="80" width="200" height="400" fill="#f3e5f5" stroke="#7b1fa2" stroke-width="2" rx="10"/>
  <text x="400" y="105" text-anchor="middle" font-family="Arial, sans-serif" font-size="16" font-weight="bold" fill="#7b1fa2">
    Backend Layer (PHP)
  </text>
  
  <!-- Backend Components -->
  <rect x="320" y="120" width="160" height="30" fill="#e1bee7" stroke="#7b1fa2" rx="5"/>
  <text x="400" y="140" text-anchor="middle" font-family="Arial, sans-serif" font-size="12" fill="#7b1fa2">Authentication API</text>
  
  <rect x="320" y="160" width="160" height="30" fill="#e1bee7" stroke="#7b1fa2" rx="5"/>
  <text x="400" y="180" text-anchor="middle" font-family="Arial, sans-serif" font-size="12" fill="#7b1fa2">Mood API</text>
  
  <rect x="320" y="200" width="160" height="30" fill="#e1bee7" stroke="#7b1fa2" rx="5"/>
  <text x="400" y="220" text-anchor="middle" font-family="Arial, sans-serif" font-size="12" fill="#7b1fa2">Period API</text>
  
  <rect x="320" y="240" width="160" height="30" fill="#e1bee7" stroke="#7b1fa2" rx="5"/>
  <text x="400" y="260" text-anchor="middle" font-family="Arial, sans-serif" font-size="12" fill="#7b1fa2">Pregnancy API</text>
  
  <rect x="320" y="280" width="160" height="30" fill="#e1bee7" stroke="#7b1fa2" rx="5"/>
  <text x="400" y="300" text-anchor="middle" font-family="Arial, sans-serif" font-size="12" fill="#7b1fa2">Journal API</text>
  
  <rect x="320" y="320" width="160" height="30" fill="#e1bee7" stroke="#7b1fa2" rx="5"/>
  <text x="400" y="340" text-anchor="middle" font-family="Arial, sans-serif" font-size="12" fill="#7b1fa2">Database Queries</text>
  
  <rect x="320" y="360" width="160" height="30" fill="#e1bee7" stroke="#7b1fa2" rx="5"/>
  <text x="400" y="380" text-anchor="middle" font-family="Arial, sans-serif" font-size="12" fill="#7b1fa2">Session Management</text>
  
  <rect x="320" y="400" width="160" height="30" fill="#e1bee7" stroke="#7b1fa2" rx="5"/>
  <text x="400" y="420" text-anchor="middle" font-family="Arial, sans-serif" font-size="12" fill="#7b1fa2">Validation & Security</text>
  
  <!-- C++ Modules Layer -->
  <rect x="550" y="80" width="200" height="400" fill="#e8f5e8" stroke="#388e3c" stroke-width="2" rx="10"/>
  <text x="650" y="105" text-anchor="middle" font-family="Arial, sans-serif" font-size="16" font-weight="bold" fill="#388e3c">
    C++ Modules
  </text>
  
  <!-- C++ Components -->
  <rect x="570" y="120" width="160" height="30" fill="#c8e6c9" stroke="#388e3c" rx="5"/>
  <text x="650" y="140" text-anchor="middle" font-family="Arial, sans-serif" font-size="12" fill="#388e3c">Cycle Prediction</text>
  
  <rect x="570" y="160" width="160" height="30" fill="#c8e6c9" stroke="#388e3c" rx="5"/>
  <text x="650" y="180" text-anchor="middle" font-family="Arial, sans-serif" font-size="12" fill="#388e3c">Health Metrics</text>
  
  <rect x="570" y="200" width="160" height="30" fill="#c8e6c9" stroke="#388e3c" rx="5"/>
  <text x="650" y="220" text-anchor="middle" font-family="Arial, sans-serif" font-size="12" fill="#388e3c">Statistical Analysis</text>
  
  <rect x="570" y="240" width="160" height="30" fill="#c8e6c9" stroke="#388e3c" rx="5"/>
  <text x="650" y="260" text-anchor="middle" font-family="Arial, sans-serif" font-size="12" fill="#388e3c">Anomaly Detection</text>
  
  <rect x="570" y="280" width="160" height="30" fill="#c8e6c9" stroke="#388e3c" rx="5"/>
  <text x="650" y="300" text-anchor="middle" font-family="Arial, sans-serif" font-size="12" fill="#388e3c">Fertile Window Calc</text>
  
  <rect x="570" y="320" width="160" height="30" fill="#c8e6c9" stroke="#388e3c" rx="5"/>
  <text x="650" y="340" text-anchor="middle" font-family="Arial, sans-serif" font-size="12" fill="#388e3c">Regularity Scoring</text>
  
  <!-- Database -->
  <rect x="300" y="520" width="200" height="60" fill="#fff3e0" stroke="#f57c00" stroke-width="2" rx="10"/>
  <text x="400" y="540" text-anchor="middle" font-family="Arial, sans-serif" font-size="14" font-weight="bold" fill="#f57c00">
    MySQL Database
  </text>
  <text x="400" y="555" text-anchor="middle" font-family="Arial, sans-serif" font-size="10" fill="#f57c00">
    Users, Cycles, Symptoms
  </text>
  <text x="400" y="570" text-anchor="middle" font-family="Arial, sans-serif" font-size="10" fill="#f57c00">
    Health Data Storage
  </text>
  
  <!-- Arrows showing data flow -->
  <!-- Frontend to Backend -->
  <path d="M 250 280 Q 275 280 300 280" stroke="#666" stroke-width="2" fill="none" marker-end="url(#arrowhead)"/>
  <text x="275" y="275" text-anchor="middle" font-family="Arial, sans-serif" font-size="10" fill="#666">API Calls</text>
  
  <!-- Backend to Database -->
  <path d="M 400 480 Q 400 500 400 520" stroke="#666" stroke-width="2" fill="none" marker-end="url(#arrowhead)"/>
  <text x="420" y="500" font-family="Arial, sans-serif" font-size="10" fill="#666">SQL Queries</text>
  
  <!-- Backend to C++ -->
  <path d="M 500 280 Q 525 280 550 280" stroke="#666" stroke-width="2" fill="none" marker-end="url(#arrowhead)"/>
  <text x="525" y="275" text-anchor="middle" font-family="Arial, sans-serif" font-size="10" fill="#666">Data Processing</text>
  
  <!-- C++ to Backend -->
  <path d="M 550 320 Q 525 320 500 320" stroke="#666" stroke-width="2" fill="none" marker-end="url(#arrowhead)"/>
  <text x="525" y="315" text-anchor="middle" font-family="Arial, sans-serif" font-size="10" fill="#666">Analysis Results</text>
  
  <!-- Arrow marker definition -->
  <defs>
    <marker id="arrowhead" markerWidth="10" markerHeight="7" refX="9" refY="3.5" orient="auto">
      <polygon points="0 0, 10 3.5, 0 7" fill="#666"/>
    </marker>
  </defs>
  
  <!-- Legend -->
  <rect x="50" y="520" width="200" height="60" fill="#ffffff" stroke="#ccc" stroke-width="1" rx="5"/>
  <text x="60" y="535" font-family="Arial, sans-serif" font-size="12" font-weight="bold" fill="#333">Data Flow:</text>
  <text x="60" y="550" font-family="Arial, sans-serif" font-size="10" fill="#333">• User interactions → Frontend</text>
  <text x="60" y="565" font-family="Arial, sans-serif" font-size="10" fill="#333">• Frontend → Backend API calls</text>
  <text x="60" y="580" font-family="Arial, sans-serif" font-size="10" fill="#333">• Backend → Database storage</text>
  <text x="60" y="595" font-family="Arial, sans-serif" font-size="10" fill="#333">• Backend ↔ C++ analysis</text>
</svg>
